<svg xmlns="http://www.w3.org/2000/svg" xmlns:xlink="http://www.w3.org/1999/xlink" viewBox="0 0 46.9 46.8"><switch><g><image overflow="visible" width="19" height="19" xlink:href="loc-arrow.png" transform="translate(14.167 14.333)"/><path fill="#F8F9FB" d="M18.2 19.1h11v9.5h-11z"/><circle fill="#F8F9FB" stroke="#E2E2E2" stroke-width=".25" stroke-miterlimit="10" cx="23.5" cy="23.5" r="23"/><path opacity=".5" d="M40.4 17.2c-2.5-1.4-5.3-.7-7.2.2l-5.7 2.7-9.8-4.9-5.9.3 8.1 8.2-5.2 2.5-5.4-2-3.6 1.7 3.3 4c-.3.4-.7 1-.4 1.6.4.8 1.5 1.2 3.3 1.2.4 0 .8 0 1.2-.1 2-.2 4.1-.7 5.4-1.3l20.4-9.5c1.8-.8 2.6-1.7 2.7-2.6 0-.7-.2-1.4-1.2-2zm-2.1 3.1l-20.4 9.5c-1.1.5-3 1-4.8 1.1-1.8.2-2.7 0-3.1-.2l.4-.4.5-.5L8 26.2l1.3-.6 5.4 2.1 7.6-3.6-7.2-7.3 2.1-.1 10.1 5.1 6.4-3c2.3-1.1 4.3-1.2 5.8-.3.4.2.5.4.5.5.1 0 .1.5-1.7 1.3zm0 0"/></g></switch></svg>