<?xml version="1.0" encoding="utf-8"?>
<!-- Generator: Adobe Illustrator 22.0.1, SVG Export Plug-In . SVG Version: 6.00 Build 0)  -->
<svg version="1.1" id="Layer_1" xmlns="http://www.w3.org/2000/svg" xmlns:xlink="http://www.w3.org/1999/xlink" x="0px" y="0px"
	 viewBox="0 0 481.2 139.9" style="enable-background:new 0 0 481.2 139.9;" xml:space="preserve">
<style type="text/css">
	.st0{fill:#FFFFFF;}
	.st1{fill:#F9BF08;}
</style>
<g>
	<g>
		<path class="st0" d="M162.9,57.1l-9.6,45h-14.1l9.6-45H132l2.7-12.8h47.5l-2.7,12.8H162.9z"/>
		<path class="st0" d="M171.8,102.1l8.6-40.5h12.2l-1,4.3c2.9-4,6.5-5.5,10.8-5.5c1.8,0,3.6,0.4,5.4,1L204.3,74
			c-1.8-0.7-4-1.1-6-1.1c-4.1,0-7.9,2.6-9.1,8.1l-4.4,21.1H171.8z"/>
		<path class="st0" d="M204.9,102.1l8.6-40.5h13.1l-8.6,40.5H204.9z M230.4,49.1c0,4.3-3.4,7.7-7.8,7.7c-4.3,0-7.7-3.4-7.7-7.7
			c0-4.4,3.4-7.8,7.7-7.8C227,41.3,230.4,44.7,230.4,49.1z"/>
		<path class="st0" d="M240.3,98.7l-4.2,20H223l12.2-57.1h12.6l-0.7,3c2.5-2.4,5.7-4.1,10.1-4.1c9.6,0,16.7,8.5,16.7,18.9
			c0,10.2-7.3,23.8-22.2,23.8C246.9,103.2,243,101.7,240.3,98.7z M243.4,81.6c-0.8,6.1,3.3,9.6,7.6,9.6c5.4,0,9.4-4.7,9.4-10.5
			c0-5.5-3.9-8.1-7.8-8.1C247.9,72.6,244.1,76.4,243.4,81.6z"/>
		<path class="st1" d="M337,68.3c0,19-12.6,33.8-35.6,33.8h-25l12.3-57.9h21.6C326.9,44.3,337,55.1,337,68.3z M293.3,89.4h9.7
			c12.2,0,19.5-7.9,19.5-19.2c0-7.6-4.2-13.1-13.7-13.1h-8.6L293.3,89.4z"/>
		<path class="st1" d="M359.2,103.2c-12.1,0-19.3-7.5-19.3-17.8c0-10,6.6-25,23.6-25c10.3,0,17.6,6.7,17.6,16.7
			c0,2.6-0.7,6.5-1.7,8.6h-26.8c0.3,4.3,3.2,6.5,7.5,6.5c3,0,6.1-0.7,8.8-3.3l7.5,7.7C372.4,100.9,366.7,103.2,359.2,103.2z
			 M354.2,77.7h14.6v-0.2c0-4-2.3-6-6.1-6C358.4,71.5,355.6,74.4,354.2,77.7z"/>
		<path class="st1" d="M417.7,65.1l0.7-3.5h12.9l-8.6,40.5h-12.5l0.7-3c-2.5,2.5-5.7,4.1-10.1,4.1c-9.7,0-16.7-8.5-16.7-18.9
			c0-10.2,7.4-23.8,22.2-23.8C411.2,60.5,415.1,62,417.7,65.1z M414.6,82.1c0.8-6.1-3.2-9.5-7.6-9.5c-5.3,0-9.4,4.7-9.4,10.5
			c0,5.5,3.9,8.1,7.8,8.1C410.1,91.1,413.9,87.3,414.6,82.1z"/>
		<path class="st1" d="M431.4,102.1l8.6-40.5h12.2l-1,4.3c2.9-4,6.5-5.5,10.8-5.5c1.8,0,3.6,0.4,5.4,1L463.9,74
			c-1.8-0.7-4-1.1-6-1.1c-4.1,0-7.9,2.6-9.1,8.1l-4.4,21.1H431.4z"/>
	</g>
	<path class="st1" d="M110.1,92.8l2.7-2.7c1.4-1.4,1.4-3.8,0-5.2l-1.7-1.7c-1.1-1.1-2.8-1.4-4.2-0.7l-0.5-1.8l3.2-3.2
		c1.4-1.4,1.4-3.8,0-5.2l-1.7-1.7c-1.3-1.3-3.3-1.4-4.7-0.4l-4-13.2c2.7-2.7,5-5,7.5-7.5c22.7-22.7,21.7-31.7,18.7-34.7
		c-3-3-12-4-34.7,18.7c-2.5,2.5-4.8,4.8-7.5,7.5l-13.2-4c1-1.4,0.9-3.4-0.4-4.7l-1.7-1.7c-1.4-1.4-3.8-1.4-5.2,0l-3.2,3.2l-1.8-0.5
		c0.6-1.4,0.4-3-0.7-4.2l-1.7-1.7c-1.4-1.4-3.8-1.4-5.2,0l-2.7,2.7l-13.7-4.1c-1.3-0.4-2.7,0-3.6,0.9l-4.7,4.7
		C24,33.4,24.4,36,26.3,37l29.4,16.1l8.1,8.1c-7.9,8.4-15.3,16.8-21,24.1l-22.5-1.7c-1.3-0.1-2.6,0.4-3.5,1.3l-2.3,2.3
		c-1.3,1.3-0.9,3.4,0.7,4.2l16.4,7.8l1.6,1.6c-1,2.8-1,4.9,0.2,6.2c1.3,1.3,3.4,1.2,6.2,0.2l1.6,1.6l7.8,16.4c0.8,1.6,2.9,2,4.2,0.7
		l2.3-2.3c0.9-0.9,1.4-2.2,1.3-3.5L55,97.6c7.3-5.7,15.7-13.1,24.1-21l8.1,8.1l16.1,29.4c1.1,1.9,3.7,2.3,5.2,0.7l4.7-4.7
		c0.9-0.9,1.3-2.3,0.9-3.6L110.1,92.8z"/>
</g>
</svg>
