<svg xmlns="http://www.w3.org/2000/svg" width="42" height="42" viewBox="0 0 42 42"><path d="M41.9 20.5c-0.2-0.2-0.2-0.2-0.5-0.3 -0.6-0.2-1.2-0.4-1.8-0.4 -1.2-0.2-2.1 0.1-3 0.5l0.8 1.5c0.6-0.5 1.6-0.6 2.8-0.2 -0.4 1.1-0.9 1.9-1.6 2.3 -0.7 0.4-1.7 0.5-2.8 0.3 0.3-1.2 0.8-2 1.5-2.4l-0.8-1.5c0.1-0.5 0.1-0.9 0.1-1.5 1.7-0.3 3-1 3.7-2 0.6-0.8 0.9-1.8 0.9-2.9 -0.1-0.7-0.2-1.3-0.2-1.9 -0.1-0.2-0.2-0.3-0.3-0.4 -0.2-0.2-0.4-0.2-0.6-0.2 -0.6 0-1.3 0.2-1.9 0.4 -1.1 0.3-2 0.9-2.5 1.7l1.3 0.9c0.5-0.6 1.3-1.1 2.5-1.3 0.1 1.2-0.1 2.1-0.5 2.8 -0.5 0.6-1.3 1.1-2.4 1.3 -0.2-1.2-0.1-2 0.4-2.8l-1.3-0.9c-0.2-0.4-0.3-0.8-0.5-1.3 1.4-0.9 2.3-2 2.6-3.2L36.3 8.7c-0.2 0.7-0.8 1.4-1.7 2.1 -0.6-1.1-0.9-2-0.6-2.8 0.2-0.8 0.8-1.4 1.8-2.1 0.6 1.1 0.7 2 0.6 2.8l1.6 0.3c0.2-0.9 0.1-1.9-0.3-3C37.3 5.4 37 4.9 36.7 4.4c-0.1-0.2-0.2-0.3-0.4-0.3 -0.2-0.1-0.4-0.1-0.6 0 -0.5 0.2-0.9 0.6-1.4 0.9 -0.9 0.7-1.5 1.4-1.7 2.2 -0.2-1.4-0.6-2.5-1.4-3.3 -0.6-0.6-1.6-1.1-2.8-1.3 -0.6-0.2-1.2-0.2-1.8-0.1 -0.2 0-0.3 0.1-0.5 0.2 -0.2 0.2-0.2 0.3-0.2 0.6 -0.1 0.6-0.1 1.3 0 1.9 0.2 1.2 0.6 2.1 1.3 2.8l1.1-1.1c-0.6-0.6-0.9-1.4-0.9-2.6 1.1 0 2 0.2 2.6 0.9 0.6 0.6 0.9 1.4 0.9 2.7 -1.3-0.1-2.1-0.4-2.7-0.9l-1.1 1.1c0.9 0.9 2.2 1.3 3.9 1.3h0.2C31.4 9.4 31.4 9.4 31.4 9.5l0.3 0.3c-0.8-0.2-1.7-0.2-2.6 0.2 -0.5 0.2-0.9 0.3-1.4 0.6 -0.2 0.1-0.3 0.2-0.3 0.4 -0.2 0.2-0.2 0.4-0.1 0.6 0.2 0.6 0.5 1.1 0.8 1.7 0.6 1 1.3 1.7 2.3 2.1l0.2 0.2 0 0c-0.2 0-0.4 0.1-0.6 0.2 -0.2 0.1-0.2 0.2-0.2 0.5 -0.1 0.6-0.1 1.3 0.1 1.9 0.2 1.2 0.6 2.1 1.2 2.8l1.2-1.1c-0.6-0.6-0.9-1.4-0.9-2.7 1.2 0.1 2.1 0.4 2.6 0.9l0.9-1.3c-0.6-0.5-1.4-0.9-2.4-1 0.6-0.2 1.3-0.3 2-0.6 0.2 0.5 0.2 1 0.4 1.6l-0.9 1.3c0.6 0.6 0.9 1.4 0.9 2.7 -1.2-0.1-2.1-0.4-2.6-0.9l-1.2 1.1c0.1 0.1 0.2 0.2 0.3 0.2l0.9 0.6c0.7 0.3 1.5 0.5 2.4 0.6 -0.2 0.6-0.4 1.2-0.6 1.8l-0.1 0.2c0-0.2-0.1-0.5-0.2-0.7 -0.3-0.7-0.9-1.3-1.6-1.8l-0.9-0.6c-0.5-0.2-0.9-0.4-1.3-0.6 -0.2 0-0.4 0-0.6 0.1 -0.2 0.1-0.3 0.2-0.4 0.3 -0.2 0.6-0.5 1.2-0.6 1.8 -0.3 1.2-0.2 2.2 0.2 3.1l0.3 0.6c0.6 0.7 1.3 1.4 2.4 1.9l0.9-1.3c-1.1-0.5-1.8-1.1-2.1-1.8 -0.3-0.8-0.2-1.7 0.2-2.8 1 0.5 1.7 1.1 2.1 1.9 0.3 0.7 0.2 1.6-0.2 2.8l-0.9 1.3c-0.6 0.6-1.2 1.2-1.9 1.7 0.1-0.3 0.1-0.6 0.2-0.9l-1.7-0.2c0 0.8-0.5 1.6-1.4 2.4 -0.7-0.9-1-1.8-0.9-2.6 0-0.9 0.6-1.7 1.5-2.4 0.6 0.9 0.9 1.8 0.9 2.7l1.7 0.2c0.1-0.9-0.2-1.8-0.6-2.8l-0.3-0.6v0.1c-0.2-0.4-0.6-0.8-0.9-1.1 -0.2-0.2-0.4-0.2-0.6-0.3 -0.2 0-0.3 0.1-0.4 0.2 -0.6 0.3-1 0.7-1.5 1.3 -0.9 0.9-1.3 1.8-1.3 2.8 -0.1 1.1 0.3 2.2 1.2 3.5 -1.3 0.3-2.4 0.6-3.7 0.6 -1.2 0-2.4-0.2-3.6-0.6 0.9-1.3 1.3-2.4 1.1-3.5l-1.6 0.2c0.1 0.8-0.2 1.7-0.9 2.6 -0.9-0.8-1.4-1.6-1.4-2.4 -0.1-0.9 0.2-1.7 0.9-2.7 0.9 0.8 1.4 1.6 1.5 2.4l1.6-0.2c-0.1-0.9-0.5-1.9-1.3-2.8 -0.5-0.5-0.9-0.9-1.5-1.3 -0.1-0.1-0.2-0.2-0.5-0.2 -0.2 0.1-0.4 0.2-0.6 0.3 -0.3 0.3-0.6 0.7-0.9 1.1l0.2-0.1 -0.4 0.6c-0.6 0.9-0.7 1.8-0.6 2.8 0.1 0.3 0.1 0.6 0.2 0.9 -0.7-0.6-1.4-1.1-2-1.7l-0.9-1.3c-0.4-1.2-0.4-2.1-0.1-2.8 0.3-0.8 1-1.4 2.1-1.9 0.5 1.2 0.6 2.1 0.2 2.8 -0.3 0.7-1 1.3-2.2 1.8l0.9 1.3c1-0.5 1.8-1.2 2.4-1.9l0.4-0.6c0.3-0.9 0.4-1.9 0.1-3.1 -0.2-0.6-0.3-1.2-0.6-1.7 -0.1-0.2-0.2-0.3-0.4-0.4 -0.2-0.1-0.4-0.1-0.6-0.1 -0.5 0.2-0.9 0.3-1.3 0.6l-0.9 0.6c-0.8 0.5-1.3 1.1-1.6 1.8 -0.1 0.2-0.2 0.5-0.2 0.7L8.8 24c-0.2-0.6-0.5-1.2-0.6-1.8 0.9-0.1 1.7-0.2 2.4-0.6l0.9-0.6c0.2-0.1 0.2-0.2 0.3-0.2l-1.2-1.1c-0.6 0.6-1.4 0.9-2.6 0.9 0-1.3 0.2-2.1 0.9-2.7l-0.9-1.3c0.1-0.6 0.2-1.1 0.3-1.6 0.7 0.2 1.3 0.4 2 0.6 -0.9 0.2-1.7 0.6-2.3 1l0.9 1.3c0.6-0.6 1.4-0.9 2.6-0.9 -0.1 1.3-0.3 2.1-0.9 2.7l1.2 1.1c0.6-0.6 1-1.6 1.2-2.8 0.2-0.6 0.2-1.3 0-1.9 0-0.2 0-0.4-0.2-0.5 -0.2-0.2-0.3-0.2-0.6-0.2H12.2l0.4-0.2 -0.6-1.5c-0.8 0.3-1.7 0.2-2.8-0.2 0.5-1.1 1-1.8 1.8-2.1 0.8-0.3 1.7-0.3 2.8 0.2 -0.5 1.1-1.1 1.8-1.8 2.1l0.6 1.5c0.8-0.3 1.6-1 2.2-2 0.3-0.6 0.6-1.1 0.8-1.7 0.1-0.2 0.1-0.4 0-0.6 -0.2-0.2-0.2-0.3-0.4-0.4 -0.5-0.2-0.9-0.4-1.4-0.6 -0.9-0.2-1.8-0.3-2.6-0.2l0.2-0.3c0.1-0.1 0.1-0.1 0.2-0.2h0.2l0.2-1.5c0.1-1.3 0.4-2.1 0.9-2.7 0.6-0.6 1.5-0.9 2.7-0.9 -0.1 1.2-0.4 2.1-0.9 2.6 -0.6 0.6-1.4 0.9-2.7 0.9l-0.2 1.5c1.7 0 3.1-0.4 3.9-1.3 0.7-0.6 1.1-1.6 1.3-2.8 0.1-0.6 0.1-1.3 0.1-1.9 -0.1-0.2-0.2-0.4-0.3-0.6 -0.2-0.1-0.3-0.1-0.5-0.2 -0.6-0.1-1.2-0.1-1.8 0.1 -1.2 0.2-2 0.6-2.8 1.3 -0.8 0.8-1.3 1.9-1.3 3.3C10.1 6.5 9.5 5.8 8.6 5 8.2 4.7 7.7 4.3 7.2 4.2 7 4 6.8 4 6.6 4.1c-0.2 0-0.3 0.2-0.4 0.3C5.9 4.9 5.5 5.4 5.3 6 4.9 7.1 4.8 8.1 5 9l1.6-0.3c-0.2-0.8 0-1.7 0.6-2.8 1 0.7 1.7 1.3 1.8 2.1 0.2 0.8 0 1.7-0.6 2.8 -1-0.7-1.6-1.4-1.8-2.1L5 9c0.3 1.3 1.2 2.4 2.6 3.2 -0.2 0.5-0.3 0.9-0.6 1.3l-1.3 0.9c0.4 0.7 0.6 1.6 0.4 2.8 -1.2-0.2-2-0.7-2.4-1.3 -0.4-0.7-0.6-1.6-0.4-2.8 1.2 0.2 2 0.7 2.4 1.3l1.3-0.9c-0.5-0.8-1.3-1.4-2.4-1.7 -0.6-0.2-1.3-0.4-1.9-0.4 -0.2-0.1-0.4 0-0.6 0.2 -0.2 0.1-0.2 0.2-0.3 0.4 -0.1 0.6-0.2 1.2-0.2 1.8 -0.1 1.2 0.2 2.2 0.8 3 0.7 1 2 1.7 3.7 2.1 0 0.6 0 1 0.1 1.5 -0.9-0.4-1.8-0.6-3-0.5 -0.6 0-1.3 0.2-1.8 0.4 -0.2 0-0.3 0.2-0.5 0.3 -0.1 0.2-0.1 0.4-0.1 0.6 0.1 0.6 0.2 1.2 0.6 1.7 0.5 1.1 1.1 1.9 2 2.4 0.6 0.4 1.5 0.6 2.4 0.6 0.6-0.1 1.2-0.2 1.9-0.3l0.2 0.5c-0.3 0-0.6-0.1-0.8-0.1H7c-0.9 0-1.8 0.4-2.8 1.1 -0.6 0.4-1 0.9-1.4 1.3 -0.2 0.2-0.2 0.3-0.2 0.6 0 0.2 0 0.4 0.2 0.6 0.4 0.4 0.9 0.8 1.4 1.2 0.9 0.6 1.9 0.9 2.8 0.9h0.1c1.3 0 2.4-0.6 3.6-1.8l-1.2-1c-0.9 0.8-1.7 1.2-2.4 1.3 -0.9 0-1.7-0.4-2.6-1.2 0.9-0.9 1.7-1.3 2.5-1.3 0.8-0.1 1.7 0.3 2.5 1.2l1.2 1c0.3 0.4 0.7 0.6 1.1 0.9 -0.2 0.1-0.4 0.2-0.6 0.2 -0.9 0.4-1.7 1-2.4 2.1 -0.3 0.6-0.6 1.1-0.8 1.7 -0.1 0.2-0.1 0.4 0 0.6 0.2 0.2 0.2 0.3 0.4 0.4 0.3 0.2 0.7 0.3 1.1 0.5 0.7 0.2 1.4 0.3 2.1 0.3 0.6 0 1.2-0.1 1.7-0.3l-0.6-1.5c-0.8 0.3-1.7 0.2-2.8-0.1 0.6-1.2 1.2-1.9 1.9-2.1 0.8-0.3 1.7-0.2 2.8 0.2 -0.6 1.1-1.2 1.8-1.9 2.1l0.6 1.5c0.6-0.2 1.1-0.6 1.7-1.2l0.8-1.1c0.2-0.2 0.2-0.5 0.4-0.6l0.3 0.1c-0.2 0.2-0.4 0.2-0.6 0.5l1.1 1.2c0.6-0.6 1.5-0.9 2.8-0.9h0.1c-0.1 1.3-0.5 2.1-1.1 2.7 -0.6 0.6-1.6 0.9-2.8 0.9 0.1-1.3 0.5-2.2 1.1-2.8l-1.1-1.2 -0.2 0.1 -0.8 1.1c-0.3 0.6-0.6 1.3-0.6 2.2 0 0.5-0.1 0.9 0 1.3 0 0.2 0.1 0.4 0.2 0.6 0.2 0.1 0.3 0.2 0.6 0.2h0.7c1.7 0 3.2-0.4 4.1-1.3 0.7-0.7 1.2-1.6 1.5-2.8 0.2 1.2 0.7 2.1 1.4 2.8 1 0.9 2.3 1.3 4.1 1.3 0.2 0 0.5 0 0.7 0 0.2-0.1 0.4-0.2 0.6-0.2 0.1-0.2 0.2-0.3 0.2-0.6 0.1-0.4 0-0.9 0-1.3 -0.2-0.9-0.3-1.6-0.6-2.2l-0.8-1.1 -0.2-0.1 -1.1 1.2c0.6 0.6 1 1.4 1 2.8 -1.2-0.1-2.1-0.3-2.8-0.9 -0.6-0.6-1-1.4-1.2-2.7 1.3 0 2.3 0.2 2.9 0.9l1.1-1.2c-0.2-0.2-0.4-0.3-0.6-0.5l0.3-0.1c0.2 0.2 0.2 0.4 0.4 0.6l0.8 1.1c0.5 0.6 1 0.9 1.7 1.2 0.5 0.2 1 0.3 1.7 0.3 1 0 2.1-0.2 3.1-0.8 0.2-0.1 0.3-0.2 0.4-0.4 0.1-0.2 0.1-0.4 0.1-0.6 -0.2-0.6-0.5-1.2-0.9-1.7 -0.6-1-1.3-1.7-2.3-2.1 -0.2-0.1-0.3-0.2-0.6-0.2 0.4-0.2 0.7-0.6 1.1-0.9l1.2-1c0.9-0.9 1.7-1.3 2.5-1.2 0.8 0 1.7 0.4 2.5 1.3 -0.9 0.8-1.8 1.2-2.6 1.2 -0.8-0.1-1.6-0.5-2.4-1.3l-1.2 1c1.2 1.2 2.4 1.8 3.6 1.8h0.1c0.9 0 1.9-0.2 2.8-0.9 0.6-0.4 1-0.8 1.4-1.2 0.1-0.2 0.2-0.4 0.2-0.6 -0.1-0.2-0.1-0.3-0.2-0.6 -0.4-0.5-0.9-0.9-1.3-1.3 -1-0.7-2-1.1-2.9-1.1l0 0c-0.3 0-0.6 0.1-0.9 0.1l0.2-0.5c0.6 0.2 1.3 0.2 1.9 0.3 0.9-0.1 1.8-0.2 2.4-0.6 0.9-0.6 1.5-1.3 2-2.4 0.2-0.6 0.5-1.2 0.6-1.7C42 20.9 42 20.7 41.9 20.5" fill="#ffffff"/></svg>