<svg xmlns="http://www.w3.org/2000/svg" width="42" height="42" viewBox="0 0 42 42"><rect width="42" height="42" fill="none"/><path d="M9.5 14.1c2.3 0 4.2-1.9 4.2-4.2s-1.9-4.2-4.2-4.2c-2.3 0-4.2 1.9-4.2 4.2C5.3 12.2 7.2 14.1 9.5 14.1L9.5 14.1zM9.5 14.1" fill="#ffffff"/><path d="M19.2 9.5c-0.5 0-0.9 0.2-1.2 0.5l-1.6 1.5c-0.3 0.3-0.9 0.8-1.3 1l-3.3 2.2H6.8c-0.8 0-1.3 0.2-1.6 0.7L3 18.1c-0.3 0.4-0.9 1.2-1.2 1.6l-1.5 2c-0.3 0.4-0.4 0.9-0.3 1.3 0.1 0.5 0.3 0.9 0.7 1.2 0.3 0.2 0.7 0.3 1.1 0.3 0.6 0 1.1-0.3 1.4-0.7l1.5-2c0 0 0 0 0 0l-0.3 3.4L1.9 37.2c-0.1 0.5 0 1 0.3 1.4 0.3 0.4 0.7 0.7 1.2 0.8 0.1 0 0.3 0 0.4 0 0.9 0 1.7-0.6 1.8-1.5l2.4-11.2h0.6l0.3 3.8c0 0.5 0.1 1.3 0 1.7L8.7 37.6c0 0.5 0.2 1 0.5 1.4 0.3 0.4 0.8 0.6 1.3 0.6 0 0 0 0 0.1 0 1 0 1.9-0.8 1.9-1.8l0.2-5.2c0-0.6 0-1.6-0.1-2.2l-0.5-5.6c0 0 0 0 0 0l0.5-6.1 4.3-2.9c0.5-0.4 1.3-1 1.7-1.4l1.6-1.5c0.7-0.7 0.8-1.8 0.1-2.5C20.2 9.7 19.7 9.5 19.2 9.5L19.2 9.5zM19.2 9.5" fill="#ffffff"/><path d="M32.3 12.8c2.3 0 4.2-1.9 4.2-4.2s-1.9-4.2-4.2-4.2c-2.3 0-4.2 1.9-4.2 4.2S30 12.8 32.3 12.8L32.3 12.8zM32.3 12.8" fill="#ffffff"/><path d="M38.8 22.5c0.3 0.5 0.9 0.7 1.4 0.7 0.4 0 0.7-0.1 1.1-0.3 0.4-0.3 0.6-0.7 0.7-1.2 0.1-0.5 0-0.9-0.3-1.3l-1.5-2c-0.3-0.5-0.9-1.2-1.2-1.6l-2.1-2.7c-0.3-0.4-0.7-0.7-1.4-0.7h-5.3l-3.3-2.2c-0.4-0.3-0.9-0.7-1.1-0.9l-0.5-0.5c-0.3-0.3-0.8-0.5-1.2-0.5 -0.5 0-1 0.2-1.3 0.6 -0.3 0.3-0.5 0.8-0.5 1.3s0.2 0.9 0.6 1.3l0.5 0.5c0.4 0.3 1 0.9 1.5 1.2l4.3 2.9 0.5 6.1c0 0 0 0 0 0l-0.5 5.6c-0.1 0.8 0.1 2 0.4 2.8l1.5 3.7c0.3 0.7 1 1.2 1.8 1.2 0.2 0 0.5 0 0.7-0.1 0.5-0.2 0.8-0.6 1-1s0.2-1 0-1.4l-1.5-3.7c-0.1-0.2-0.2-0.8-0.1-1l0.3-3.8h0.6l0.9 4.3c0.2 0.8 0.7 1.5 1.3 1.8 0.4 0.2 0.9 0.3 1.3 0.3 0.3 0 0.7-0.1 1-0.2l2-0.7c1-0.4 1.5-1.4 1.1-2.4 -0.3-0.7-1-1.2-1.8-1.2 -0.2 0-0.4 0-0.6 0.1l-0.8 0.3 -0.8-3.8 -0.3-3.7c0.1 0.1 0.2 0.2 0.2 0.3L38.8 22.5zM38.8 22.5" fill="#ffffff"/><path d="M23.1 6.8c0.1 0 0.1 0 0.2 0 0.3 0 0.5-0.2 0.6-0.5 0.2-0.8 0.7-2 1.1-2.2 0.3-0.1 0.4-0.5 0.3-0.8 -0.1-0.3-0.5-0.4-0.8-0.3 -1.1 0.5-1.7 2.6-1.8 3C22.6 6.3 22.8 6.7 23.1 6.8L23.1 6.8zM23.1 6.8" fill="#ffffff"/><path d="M20.3 5.2c-0.3-0.1-0.7 0-0.8 0.3 -0.1 0.3 0 0.7 0.3 0.8 0.4 0.2 0.9 1.4 1.1 2.2 0.1 0.3 0.3 0.5 0.6 0.5 0.1 0 0.1 0 0.2 0 0.3-0.1 0.5-0.4 0.4-0.7C22 7.7 21.4 5.7 20.3 5.2L20.3 5.2zM20.3 5.2" fill="#ffffff"/></svg>