<svg xmlns="http://www.w3.org/2000/svg" width="42" height="42" viewBox="0 0 42 42"><path d="M35 7.9l-0.1-0.3 -0.5-0.1 -0.2-0.2 -0.2 0.1L33.8 7.1l-0.2-0.3h-0.3L32.9 7.1l-0.4 0.1L28 7.4l-1.7-0.2c-0.3-0.1-0.6-0.1-0.9-0.1L24.5 7.1l-1.4-0.2 -0.5 0.6 -0.4 0.2 -0.4 0.2h-0.4 -0.3V7.4l0.6-0.2 -1.3 0.3 -0.6-0.1 -0.7-0.3L18.9 6.8l-0.1-0.7 -0.5-0.9 0.1-0.3 0.9 0.6 -1-0.6 -0.4-0.1 -1-0.1L15.9 5.1h-1.1l-0.6 0.2 -0.6 0.6 -0.4 0.2 -1 0.1 -0.6 0.6 -0.4 0.7L5.9 8.8l-0.7 0.2 -0.7 0.5L3.7 9.3l0.2 0.9 -0.2 0.4 0.4 2.2 0.2 0.3 -0.1 0.2L3.9 13.9v0.3l-0.5 0.5 -0.3 0.2 0.1 0.8 0.7 0.7 0.3 0.3 0.4 0.3v0.7L4.4 18v0.8l0.4 0.2v0.5l0.1 0.5 0.2 0.2 -0.2 0.6L4.3 21.5l0.2 0.5v0.2l0.2 0.2 -0.1 0.6 -0.1 0.2 0.9 0.4v0.7l0.1 0.4v0.3l-0.2 0.8 -0.2 0.3L4.9 26.3l-0.2 0.2 -0.1 0.4L4.8 27H5.1l0.2 0.1 0.2-0.2v-0.5 -0.2l0.3 0.2 0.5 0.1 0.2 0.6 0.2 0.4 0.6 0.2 0.4 0.1 0.3 0.2 0.3-0.1 0.2 0.3 0.3 0.1 0.1-0.1 0.2 0.1 0.1 0.5 0.3-0.3 0.2 0.1L9.9 28.3l0.2 0.1h0.3l0.1 0.2 0.1 0.4 -0.2 0.3L10 29.5l-0.3 0.3 0.3 0.2 0.3 0.2 0.1 0.2 0.3 0.1 0.1 0.2 0.2 0.2 0.2 0.6 0.2 0.2 0.4 0.1 0.3-0.5 0.3-0.2h0.5v-0.2l-0.2-0.3 -0.6-0.6 0.2-0.2 0.5 0.2 0.3 0.2h0.3l0.2 0.2 0.3 0.1 0.2 0.3 0.3 0.2 0.3-0.2 0.3-0.1 0.3 0.1 0.2 0.4 -0.4 0.2 -0.3 0.2 0.4 0.3 0.2 0.2 0.1 0.3 0.4 0.2 0.3-0.2 0.2-0.2 0.3 0.2 0.2 0.2 0.4 0.3 0.3-0.2 0.6 0.2 0.2 1 0.4 0.2 0.3 0.3v0.2l0.2 0.4 0.3 0.2 0.1 0.5 0.6 0.1 0.2-0.4 0.3-0.4 0.4-0.2 0.2-0.3 0.2 0.1 0.1 0.4 0.2 0.2 0.5 0.5h0.2l0.2 0.2 -0.1 0.6v0.4l0.2 0.1 0.3-0.2h0.3l0.2 0.2h0.2l0.1-0.4 0.1-0.3 0.8-0.2v-0.4l0.2 0.2h0.2l0.3-0.1h0.5l0.2-0.1h0.2l0.6 0.6h0.2l0.1-0.3 0.3-0.1 -0.2-0.2 0.1-0.2h0.4l0.2 0.2 0.2-0.3 0.2-0.1 0.2 0.2h0.4l0.2-0.1h0.2l0.6 0.3 0.2-0.2 0.7 0.5 -0.1 0.3 0.2 0.2 1.2 0.4 0.5 0.2 1.1 0.3 0.4 0.2 0.2-0.1 -0.1-0.3 -0.2-0.4 -0.5-0.5V36v-0.2 -0.2l-0.4-0.9 3.8-5 0.5-0.2h0.4l0.3-0.3 0.2-1.2 -0.1-0.2 -0.3-0.4v-0.3l0.2-0.2 0.3-0.1 -0.1-0.1 -0.5-0.2 -0.1-0.3v-0.5l-0.3-0.4 -0.1-0.3 -0.4-0.1 -0.2-0.4 -0.1-0.4 0.1-0.6 -0.6-0.9 -0.1-0.9 0.2-0.2 0.2-0.2 -0.2-0.5 0.1-0.5 0.4-0.3 -0.5-0.6 -0.8-0.4 -0.8-0.1 -0.1-0.2v-0.4l0.9-1.4 1.1-0.6 0.3-0.2 0.1-1.7 -0.2-0.4v-0.7l-0.3-0.3L35.5 9.1l0.1-0.6 -0.2-0.3L35 7.9" fill="#ffffff"/></svg>