<svg xmlns="http://www.w3.org/2000/svg" width="42" height="42" viewBox="0 0 42 42"><path d="M36.4 8.5c-3.2 0-5.9-0.5-8.4-1.4 -2.4-0.9-4.7-2.4-6.7-4.3 -2 2-4.3 3.5-6.8 4.3C11.9 8.1 9.2 8.5 6 8.5c0 0.5 0 1.8-0.1 4 0 1.8 0 3.2 0 4.3 0.1 3.5 0.5 6.4 1.2 8.8l7.7-4.1 2.3-2.3 2.8 2.8 5.3-5.3 2.3 2.2 -7.6 7.6 -5.1-5L7.1 25.7c0.9 3.2 2.4 5.8 4.4 8 2.4 2.5 5.6 4.5 9.7 5.9 4-1.4 7.3-3.4 9.6-5.9 2.1-2.2 3.5-4.9 4.4-8 0.7-2.4 1.1-5.4 1.2-8.8 0.1-1.1 0.1-2.5 0-4.3C36.4 10.4 36.4 9 36.4 8.5" fill="#ffffff"/></svg>